<svg xmlns="http://www.w3.org/2000/svg" width="100%" viewBox="0 0 24 24">
  <symbol id="instagram">
    <path d="M17.34,5.46h0a1.2,1.2,0,1,0,1.2,1.2A1.2,1.2,0,0,0,17.34,5.46Zm4.6,2.42a7.59,7.59,0,0,0-.46-2.43,4.94,4.94,0,0,0-1.16-1.77,4.7,4.7,0,0,0-1.77-1.15,7.3,7.3,0,0,0-2.43-.47C15.06,2,14.72,2,12,2s-3.06,0-4.12.06a7.3,7.3,0,0,0-2.43.47A4.78,4.78,0,0,0,3.68,3.68,4.7,4.7,0,0,0,2.53,5.45a7.3,7.3,0,0,0-.47,2.43C2,8.94,2,9.28,2,12s0,3.06.06,4.12a7.3,7.3,0,0,0,.47,2.43,4.7,4.7,0,0,0,1.15,1.77,4.78,4.78,0,0,0,1.77,1.15,7.3,7.3,0,0,0,2.43.47C8.94,22,9.28,22,12,22s3.06,0,4.12-.06a7.3,7.3,0,0,0,2.43-.47,4.7,4.7,0,0,0,1.77-1.15,4.85,4.85,0,0,0,1.16-1.77,7.59,7.59,0,0,0,.46-2.43c0-1.06.06-1.4.06-4.12S22,8.94,21.94,7.88ZM20.14,16a5.61,5.61,0,0,1-.34,1.86,3.06,3.06,0,0,1-.75,1.15,3.19,3.19,0,0,1-1.15.75,5.61,5.61,0,0,1-1.86.34c-1,.05-1.37.06-4,.06s-3,0-4-.06A5.73,5.73,0,0,1,6.1,19.8,3.27,3.27,0,0,1,5,19.05a3,3,0,0,1-.74-1.15A5.54,5.54,0,0,1,3.86,16c0-1-.06-1.37-.06-4s0-3,.06-4A5.54,5.54,0,0,1,4.21,6.1,3,3,0,0,1,5,5,3.14,3.14,0,0,1,6.1,4.2,5.73,5.73,0,0,1,8,3.86c1,0,1.37-.06,4-.06s3,0,4,.06a5.61,5.61,0,0,1,1.86.34A3.06,3.06,0,0,1,19.05,5,3.06,3.06,0,0,1,19.8,6.1,5.61,5.61,0,0,1,20.14,8c.05,1,.06,1.37.06,4S20.19,15,20.14,16ZM12,6.87A5.13,5.13,0,1,0,17.14,12,5.12,5.12,0,0,0,12,6.87Zm0,8.46A3.33,3.33,0,1,1,15.33,12,3.33,3.33,0,0,1,12,15.33Z"></path>
  </symbol>

  <symbol id="facebook">
    <path d="M20.9,2H3.1A1.1,1.1,0,0,0,2,3.1V20.9A1.1,1.1,0,0,0,3.1,22h9.58V14.25h-2.6v-3h2.6V9a3.64,3.64,0,0,1,3.88-4,20.26,20.26,0,0,1,2.33.12v2.7H17.3c-1.26,0-1.5.6-1.5,1.47v1.93h3l-.39,3H15.8V22h5.1A1.1,1.1,0,0,0,22,20.9V3.1A1.1,1.1,0,0,0,20.9,2Z"></path>
  </symbol>

 <symbol id="web" xmlns="http://www.w3.org/2000/svg">
    <path d="M7.8 12h-.75.75Zm8.4 0h.75-.75ZM12 16.2v.75-.75Zm2.17 6.07.16.74-.16-.74Zm-4.34 0-.16.74.16-.74ZM2.28 8.03l-.7-.28.7.28Zm-.55 6.14-.74.16.74-.16Zm8.1-12.44L9.67.99l.16.74Zm4.34 0 .16-.74-.16.74Zm7.47 6.34.22.72-.22-.72Zm-19.28 0-.22.72.22-.72Zm18.67.25c.46 1.13.72 2.38.72 3.68h1.5c0-1.5-.3-2.94-.83-4.25l-1.39.57Zm.72 3.68c0 .7-.07 1.37-.2 2.02l1.46.3c.16-.74.24-1.52.24-2.32h-1.5Zm-.2 2.02a9.76 9.76 0 0 1-7.53 7.52l.3 1.47a11.26 11.26 0 0 0 8.69-8.68l-1.47-.31Zm-7.53 7.52a9.8 9.8 0 0 1-2.02.21v1.5c.8 0 1.58-.08 2.33-.24l-.31-1.47Zm-2.02.21a9.8 9.8 0 0 1-2.02-.2L9.68 23c.74.16 1.52.24 2.32.24v-1.5ZM2.25 12c0-1.3.26-2.55.72-3.68l-1.39-.57A11.22 11.22 0 0 0 .75 12h1.5Zm7.73 9.54a9.76 9.76 0 0 1-7.52-7.52l-1.47.3a11.26 11.26 0 0 0 8.68 8.69l.31-1.47Zm-7.52-7.52A9.8 9.8 0 0 1 2.25 12H.75c0 .8.08 1.58.24 2.33l1.47-.31Zm.51-5.7a9.77 9.77 0 0 1 7.01-5.86L9.68.99c-3.69.78-6.7 3.35-8.1 6.76l1.39.57Zm7.01-5.86A9.8 9.8 0 0 1 12 2.25V.75c-.8 0-1.58.08-2.33.24l.31 1.47ZM12 2.25c.7 0 1.37.07 2.02.2l.3-1.46A11.3 11.3 0 0 0 12 .75v1.5Zm2.02.2c3.19.68 5.8 2.91 7.01 5.87l1.39-.57A11.27 11.27 0 0 0 14.32 1l-.3 1.47Zm-.56-.5c.29.91 1.36 4.4 1.8 7.62l1.49-.2a52.1 52.1 0 0 0-1.86-7.87l-1.43.45Zm1.8 7.62c.12.86.19 1.69.19 2.43h1.5c0-.83-.08-1.73-.2-2.64l-1.49.2Zm6.16-2.22c-1.15.35-3.32.97-5.55 1.38l.27 1.47a55.22 55.22 0 0 0 5.72-1.41l-.44-1.44Zm-5.55 1.38a22.2 22.2 0 0 1-3.87.42v1.5c1.29 0 2.74-.19 4.14-.45l-.27-1.47ZM15.45 12c0 1.1-.15 2.38-.39 3.67l1.48.27c.24-1.34.41-2.71.41-3.94h-1.5Zm-.39 3.67a54.16 54.16 0 0 1-1.6 6.38l1.43.45c.25-.8 1.13-3.64 1.65-6.56l-1.48-.27Zm6.99-2.21c-.8.25-3.55 1.1-6.38 1.6l.27 1.48c2.92-.52 5.76-1.4 6.56-1.65l-.45-1.43Zm-6.38 1.6c-1.29.24-2.57.39-3.67.39v1.5c1.23 0 2.6-.17 3.94-.4l-.27-1.49Zm-3.67.39c-1.1 0-2.38-.15-3.67-.39l-.27 1.48c1.34.24 2.71.41 3.94.41v-1.5Zm-3.67-.39a54.15 54.15 0 0 1-6.38-1.6l-.45 1.43c.8.25 3.64 1.13 6.56 1.65l.27-1.48ZM7.05 12c0 1.23.17 2.6.4 3.94l1.49-.27A21.66 21.66 0 0 1 8.55 12h-1.5Zm.4 3.94c.53 2.92 1.4 5.76 1.66 6.56l1.43-.45c-.25-.8-1.1-3.55-1.6-6.38l-1.48.27ZM9.12 1.5c-.3.92-1.4 4.52-1.86 7.86l1.49.2c.44-3.2 1.51-6.7 1.8-7.6L9.11 1.5ZM7.25 9.36c-.12.9-.2 1.8-.2 2.64h1.5c0-.74.07-1.57.19-2.43l-1.49-.2ZM12 9.15a22.2 22.2 0 0 1-3.87-.42l-.27 1.47c1.4.26 2.85.45 4.14.45v-1.5Zm-3.87-.42a53.72 53.72 0 0 1-5.55-1.38L2.14 8.8c1.18.35 3.4.99 5.72 1.41l.27-1.47Zm13.25-1.36.04-.02.44 1.44.21-.09-.69-1.33Zm-19.5 1.3c.08.05.17.09.26.12l.44-1.44a.4.4 0 0 1 .09.04l-.79 1.28Z"/>
 </symbol>
</svg>