<svg xmlns="http://www.w3.org/2000/svg" stroke="currentColor">
  <symbol id="chief">
    <path d="M72 62.24V34l.49-.18.66-.24.55-.25.55-.27.57-.32.46-.28.59-.41.35-.27.62-.5.23-.21c.23-.21.45-.42.66-.64a13.53 13.53 0 0 0 2.47-3.62l.06-.12c.13-.28.24-.56.35-.85l.11-.31c.09-.25.17-.51.24-.77l.12-.47a10.66 10.66 0 0 0 .25-1.36l.07-.54c0-.42.06-.84.06-1.27A13.49 13.49 0 0 0 66.45 7.69l-.45.08c-.36.06-.72.11-1.07.19-.18 0-.35.11-.53.16-.33.09-.66.18-1 .3s-.34.15-.51.22-.59.24-.88.38a13.44 13.44 0 0 0-11.73-6.83h-.13A13.46 13.46 0 0 0 38.44 9l-.19-.08c-.4-.19-.8-.36-1.21-.51l-.28-.08a14.9 14.9 0 0 0-1.19-.35c-.18 0-.36-.06-.55-.1s-.64-.13-1-.17a13.49 13.49 0 0 0-15 13.4c0 .44 0 .87.07 1.29v.35c0 .32.08.63.14.94 0 .11 0 .22.07.33q.11.49.25 1l.07.22a13.39 13.39 0 0 0 5.38 7q.47.32 1 .59l.15.09c.28.15.57.28.86.41a13.38 13.38 0 0 0 1.3.51l.7.2v28.2C29 67.32 39.82 70 50.5 70S72 67.32 72 62.24ZM50.5 67c-12 0-18.5-3.13-18.5-4.73V34.55h.52A13.49 13.49 0 0 0 39 32.92a1.5 1.5 0 1 0-1.44-2.63 10.38 10.38 0 0 1-7.44 1 10.58 10.58 0 0 1-2.12-.76l-.42-.2-.2-.12c-.23-.13-.46-.26-.67-.41l-.09-.06a8.44 8.44 0 0 1-.74-.56 10.54 10.54 0 0 1-3-4 9.25 9.25 0 0 1-.32-.88l-.06-.18a8.21 8.21 0 0 1-.19-.75l-.06-.26c0-.24-.08-.48-.11-.73v-.27c0-.33-.05-.67-.05-1A10.49 10.49 0 0 1 34 10.71a10.45 10.45 0 0 1 4.22 1.61h.07a1.5 1.5 0 0 0 2.22-.67 10.39 10.39 0 0 1 19.29.06 1.5 1.5 0 0 0 2.24.67l.56-.35.2-.03.54-.29.15-.08.54-.24.18-.08.52-.18.21-.07.51-.14.25-.07.49-.09.27-.05.51-.06h1.06a10.5 10.5 0 0 1 10.49 10.43c0 .33 0 .66-.05 1 0 .14 0 .28-.06.42s0 .35-.08.53-.07.35-.12.53l-.1.37-.19.59-.09.25a7.4 7.4 0 0 1-.27.65l-.05.11a10.61 10.61 0 0 1-1.91 2.79 7.5 7.5 0 0 1-.5.48l-.19.17-.47.38-.29.22-.45.31-.37.22-.44.25-.44.21-.42.19-.53.25-.39.14A10.48 10.48 0 0 1 63 30.3a1.5 1.5 0 1 0-1.44 2.63A13.5 13.5 0 0 0 68 34.57h1v27.67C69 63.85 62.47 67 50.5 67Z"/>
    <path d="M61.85 18.7a1.5 1.5 0 0 0-1.95.84 10.49 10.49 0 0 1-19.51 0 1.5 1.5 0 0 0-2.79 1.1 13.49 13.49 0 0 0 25.09 0 1.5 1.5 0 0 0-.84-1.94ZM43.54 79.85c-3.19 0-4.9 1.2-7 4.95-2.31 4.07-4.74 6.14-7.23 6.14a5.41 5.41 0 0 1-5.4-5.4 1.5 1.5 0 0 0-3 0 8.41 8.41 0 0 0 8.4 8.4c3.65 0 7-2.58 9.84-7.66 1.85-3.28 2.77-3.43 4.39-3.43a2.36 2.36 0 0 1 2.09 1 1.5 1.5 0 1 0 2.51-1.64 5.37 5.37 0 0 0-4.6-2.36ZM77.62 84a1.5 1.5 0 0 0-1.5 1.5 5.41 5.41 0 0 1-5.4 5.4c-2.49 0-4.92-2.07-7.23-6.14-2.12-3.74-3.83-4.95-7-4.95a5.37 5.37 0 0 0-4.59 2.4 1.5 1.5 0 0 0 2.51 1.65 2.36 2.36 0 0 1 2.09-1c1.62 0 2.55.15 4.41 3.42 2.88 5.08 6.19 7.66 9.84 7.66a8.41 8.41 0 0 0 8.4-8.4A1.5 1.5 0 0 0 77.62 84Z"/>
  </symbol>

  <symbol id="book">
    <path d="m92.9 60.4-7.4-5v-15l7.4-4.9c.4-.3.7-.7.7-1.2s-.3-1-.7-1.2L54.8 7.5c-.5-.3-1.2-.3-1.7 0l-47 31.4-.4.4v.1c-.2.3-.2.5-.2.8v27.5c0 .5.3 1 .7 1.2l38.1 25.4c.3.2.5.3.8.3.3 0 .6-.1.8-.3L93 62.9c.4-.3.7-.7.7-1.2-.1-.6-.4-1.1-.8-1.3zM54 10.6l35.4 23.6-5.8 3.8-.8.5L45 63.7 16.6 44.8l-.2-.2-6.8-4.5L54 10.6zM17.1 48.8l27 18c.5.3 1.2.3 1.7 0l36.7-24.5v12.3L45.2 79.2l-28.1-18V48.8zM45 91.2 8.4 66.8V43l5.8 3.8V62c0 .5.3 1 .7 1.3l29.6 19c.2.2.5.2.8.2l.8-.2 37.4-24.6 5.9 4L45 91.2z"/>
    <path d="m47.5 24.3 17.8 12.2.8.3c.5 0 .9-.2 1.2-.7.5-.7.3-1.6-.4-2.1L49.2 21.8c-.7-.5-1.6-.3-2.1.4s-.3 1.6.4 2.1z"/>
  </symbol>

  <symbol id="student">
    <path d="M20.4 19.3 32 24.4c-2.3 3.4-3.5 7.3-3.5 11.4 0 11.2 9.1 20.4 20.4 20.4s20.4-9.1 20.4-20.4c0-4-1.2-8-3.4-11.3l10.2-4.8v19.4L73 45.7c-.2.5-.2 1 .1 1.4s.8.7 1.3.7h5.9c.5 0 1-.2 1.2-.7.3-.4.3-.9.1-1.4l-2.7-6.6V18.4c0-.8-.1-1.4-1.5-2-.3-.1-27.8-12.3-27.8-12.3-.4-.2-.8-.2-1.2 0l-28 12.4c-.5.2-.9.8-.9 1.4s.3 1.1.9 1.4zm45.8 16.5c0 9.6-7.8 17.4-17.4 17.4s-17.4-7.8-17.4-17.4c0-3.7 1.2-7.2 3.3-10.2l13.6 6.1c.2.1.4.1.6.1s.4 0 .6-.1l13.4-6c2.2 3 3.3 6.5 3.3 10.1zm10.5 9 .7-1.5.6 1.5h-1.3zM49 7.1l24.3 10.8L49 28.7 24.7 17.9 49 7.1zM49.4 59.8C29.9 59.8 14 75.7 14 95.2c0 .8.7 1.5 1.5 1.5h67.8c.8 0 1.5-.7 1.5-1.5 0-19.5-15.9-35.4-35.4-35.4zM17.1 93.7c.8-17.2 15-30.9 32.4-30.9S81 76.6 81.8 93.7H17.1z"/>
  </symbol>

  <symbol id="plants">
    <path d="M46.5 39a1.5 1.5 0 0 0-1.5 1.5v19a1.5 1.5 0 0 0 3 0v-19a1.5 1.5 0 0 0-1.5-1.5ZM56 59.5v-19a1.5 1.5 0 0 0-3 0v19a1.5 1.5 0 0 0 3 0Z"/>
    <path d="M92 37.8a1 1 0 0 0 0-.6 1.4 1.4 0 0 0 0-.3 1.5 1.5 0 0 0-.2-.2 1.4 1.4 0 0 0-.1-.2l-.1-.1c-.7-.6-15.6-13.7-32.4-16.8a79.7 79.7 0 0 0 1.4-10s0 0 0-.1v-.2a1.5 1.5 0 0 0 0-.2 1.5 1.5 0 0 0-.2-.4 1.5 1.5 0 0 0-.3-.4 1.5 1.5 0 0 0-.3-.2 1.5 1.5 0 0 0-.4 0H59a85.3 85.3 0 0 0-14.7 2.4c-7.5 1.9-18 5.6-25.2 12.8-12.3 12.3-5 29-4.5 30a1.5 1.5 0 0 0 .1.3h.1l.2.2.2.1a31.4 31.4 0 0 0 12.5 2.7 25.2 25.2 0 0 0 9.3-1.8v8.4a15.5 15.5 0 0 0 2.8 9.1l2 2.7a12.7 12.7 0 0 1 2.2 7.3v14.2a1.5 1.5 0 0 0 3 0V82.3a15.5 15.5 0 0 0-2.8-9.1l-2-2.7a12.7 12.7 0 0 1-2.2-7.4V40.5a1.5 1.5 0 0 0-3 0v11a25.7 25.7 0 0 1-18.4.5l38.5-38.5a82.4 82.4 0 0 1-5 19.6 1.5 1.5 0 0 0 2.8 1.1 77.5 77.5 0 0 0 3.7-11.6 72.6 72.6 0 0 1 29.6 15A80 80 0 0 1 64 51V40.5a1.5 1.5 0 0 0-3 0v22.6a12.7 12.7 0 0 1-2.2 7.4l-2 2.7a15.5 15.5 0 0 0-2.8 9.1v14.2a1.5 1.5 0 0 0 3 0V82.3a12.7 12.7 0 0 1 2.2-7.3l2-2.6A15.5 15.5 0 0 0 64 63v-8.9a81 81 0 0 0 27.5-15.6h.1a1.4 1.4 0 0 0 .1-.3 1.5 1.5 0 0 0 .2-.2 1.4 1.4 0 0 0 .1-.3ZM55 11.4l-25 25V19c9-4.9 19.4-6.9 25-7.6ZM16.5 49.9c-1.6-4.5-4-15.7 4.7-24.6a35.1 35.1 0 0 1 5.8-4.6v18.7Z"/>
  </symbol>

  <symbol id="megaphone">
    <path d="M65.3 12.2a1.5 1.5 0 0 0-1.4-.1L32.7 27H6.5A1.5 1.5 0 0 0 5 28.5v28a1.1 1.1 0 0 0 0 .4v.1a1.5 1.5 0 0 0 .1.2l21 35a1.5 1.5 0 0 0 1.2.8h14.2a1.5 1.5 0 0 0 1.3-2.3L23.2 58H33l31 14.8a1.5 1.5 0 0 0 2.1-1.3v-58a1.5 1.5 0 0 0-.7-1.3ZM8 30h24v25H8Zm30.9 60H28.3L9 58h10.6ZM63 69.1 35 55.7V29.3l28-13.5ZM79.5 33.5a1.5 1.5 0 0 0 .9-.3l11-8a1.5 1.5 0 1 0-1.8-2.4l-11 8a1.5 1.5 0 0 0 .9 2.7ZM94.5 41h-15a1.5 1.5 0 0 0 0 3h15a1.5 1.5 0 0 0 0-3ZM91.4 59.8l-11-8a1.5 1.5 0 1 0-1.8 2.4l11 8a1.5 1.5 0 1 0 1.8-2.4Z"/>
  </symbol>

  <symbol id="speaker">
    <path d="M42.9 41.3c9.3 0 16.9-7.6 16.9-16.9 0-9.3-7.6-16.8-16.9-16.8-9.3 0-16.9 7.5-16.9 16.8s7.6 16.9 16.9 16.9zm0-30.7c7.6 0 13.9 6.2 13.9 13.8 0 7.6-6.2 13.9-13.9 13.9S29 32 29 24.4c0-7.6 6.2-13.8 13.9-13.8z"/>
    <path d="M88.4 72h-4.5V49c0-.4-.1-.8-.4-1l-3.7-4c1.2-2.3.6-5.2-1.4-6.9l-4.1-3.5c-1.2-1-2.7-1.5-4.2-1.3-1.5.1-2.9.8-3.9 2-2 2.4-1.7 6.1.7 8.1l4.1 3.5c1.1.9 2.4 1.4 3.7 1.4 1.1 0 2.2-.3 3.1-.9l3.1 3.3V72h-8.5a29.08 29.08 0 0 0-29-28.3c-15.8 0-28.7 12.6-29 28.3h-3.7c-.8 0-1.5.7-1.5 1.5v16.4c0 .8.7 1.5 1.5 1.5h77.8c.8 0 1.5-.7 1.5-1.5V73.5c-.1-.8-.8-1.5-1.6-1.5zM72.9 43.6l-4.1-3.5c-1.2-1-1.3-2.7-.3-3.9.5-.6 1.1-.9 1.9-1h.2c.6 0 1.3.2 1.8.7l4.1 3.5c1.2 1 1.3 2.7.3 3.9-1 1.1-2.7 1.3-3.9.3zm-29.6 3a26 26 0 0 1 26 25.3h-52c.4-14 11.9-25.3 26-25.3zm43.6 41.8H12.1V75h74.8v13.4z"/>
  </symbol>

  <symbol id="question">
    <path d="M79.8 18H21.2A11.3 11.3 0 0 0 10 29.2v33.6A11.2 11.2 0 0 0 21.2 74H27v17a1.5 1.5 0 0 0 2.5 1.2L49.1 74h30.7A11.3 11.3 0 0 0 91 62.8V29.2A11.2 11.2 0 0 0 79.8 18ZM88 62.8a8.2 8.2 0 0 1-8.2 8.2H48.5a1.5 1.5 0 0 0-1 .4L30 87.6V72.5a1.5 1.5 0 0 0-1.5-1.5h-7.3a8.2 8.2 0 0 1-8.2-8.2V29.2a8.2 8.2 0 0 1 8.2-8.2h58.6a8.2 8.2 0 0 1 8.2 8.2Z"/>
    <path d="M30.2 48.8a4.6 4.6 0 1 0 4.6 4.7 4.6 4.6 0 0 0-4.6-4.7Zm0 6.3a1.6 1.6 0 1 1 1.6-1.6 1.6 1.6 0 0 1-1.6 1.6ZM43.3 48.8a4.6 4.6 0 1 0 4.6 4.7 4.6 4.6 0 0 0-4.6-4.7Zm0 6.3a1.6 1.6 0 1 1 1.6-1.6 1.6 1.6 0 0 1-1.6 1.6ZM57.4 49a4.6 4.6 0 1 0 3 2 4.6 4.6 0 0 0-3-2Zm.6 4.8a1.6 1.6 0 1 1-1.2-2 1.6 1.6 0 0 1 1.2 2ZM73 29.8a7.5 7.5 0 0 0-9 7.3 1.5 1.5 0 0 0 3 0 4.5 4.5 0 1 1 4.5 4.5 1.5 1.5 0 0 0-1.5 1.5v6.4a1.5 1.5 0 0 0 3 0v-5a7.5 7.5 0 0 0 0-14.7ZM71.5 54a1.5 1.5 0 0 0-1.5 1.5v2a1.5 1.5 0 0 0 3 0v-2a1.5 1.5 0 0 0-1.5-1.5Z"/>
  </symbol>

  <symbol id="test">
    <path d="M63 68c-.8 0-1.5.7-1.5 1.6v13.7h-49V18.7h49V30a1.5 1.5 0 1 0 3 0V17c0-.7-.7-1.4-1.5-1.4H11c-.8 0-1.5.7-1.5 1.5v67.6c0 .8.7 1.5 1.5 1.5h52c.8 0 1.5-.7 1.5-1.5V69.6c0-.9-.7-1.5-1.5-1.5z"/>
    <path d="M90.3 19.7c0-.4-.3-.8-.6-1l-7.5-5c-.4-.2-.8-.2-1.2-.2-.4.1-.7.4-1 .7l-5.4 8.4-.2.2-29.1 44.3-.2.3c-.2.2-.3.4-.3.7l-2 11.3a1.5 1.5 0 0 0 2.4 1.5l9.4-6.6.2-.2c.2 0 .4-.2.5-.4l29.2-44.3.1-.3 5.5-8.3c.2-.3.3-.7.2-1.1zM47.4 70.3l4 2.6-5 3.5 1-6zm6.2.5-5-3.3L76 25.7l5 3.3-27.5 41.8zm29.2-44.3-5-3.3 4-6.1 5 3.3-4 6.1zM46.7 34.6a1.5 1.5 0 1 0 0-3H18.8a1.5 1.5 0 1 0 0 3h28zM19.2 47H47a1.5 1.5 0 1 0 0-3H19a1.5 1.5 0 1 0 0 3z"/>
  </symbol>

  <symbol id="group">
    <path d="M76.9 34v-2.7c3.4-2 5.6-5.7 5.6-9.7v-4.8c0-6.2-5-11.2-11.2-11.2S60 10.6 60 16.8v4.8c0 3.9 2 7.5 5.4 9.5V34c-1.5.4-2.9 1-4.3 1.8-2.2-5.1-7.3-8.7-13.2-8.7-5.8 0-10.7 3.4-13 8.4-1.3-.6-2.6-1.2-3.9-1.5v-2.7c3.4-2 5.6-5.7 5.6-9.7v-4.8c0-6.2-5-11.2-11.2-11.2s-11.2 5-11.2 11.2v4.8c0 3.9 2 7.5 5.4 9.5V34A20.8 20.8 0 0 0 4.5 54.1c0 .8.7 1.5 1.5 1.5H35.9c1.2 1.9 2.9 3.5 4.9 4.7v4.5c-11.9 3.2-20 13.9-20 26.3 0 .8.7 1.5 1.5 1.5h51.5c.8 0 1.5-.7 1.5-1.5 0-12.3-8.5-23.2-20.3-26.3v-4.3c2.1-1.2 3.8-2.8 5.1-4.8h30.7c.8 0 1.5-.7 1.5-1.5-.1-9.4-6.5-17.7-15.4-20.2zM7.5 52.7c.6-7.8 6.2-14.2 13.9-16 .7-.2 1.2-.8 1.2-1.5v-5c0-.6-.3-1.1-.8-1.3a8.2 8.2 0 0 1-4.6-7.3v-4.8c0-4.5 3.7-8.2 8.2-8.2s8.2 3.7 8.2 8.2v4.8c0 3.1-1.9 6-4.7 7.4-.5.2-.9.8-.9 1.4v4.8c0 .7.5 1.3 1.2 1.5 1.7.4 3.3 1 4.8 1.8-.2 1-.3 2-.3 3.1V48c0 1.6.3 3.2.8 4.7h-27zm45.3 5.5c-.5.2-.9.8-.9 1.4V66c0 .7.5 1.3 1.2 1.5a24.45 24.45 0 0 1 19.1 22.2H23.8C24.4 79 32 70 42.6 67.6c.7-.2 1.2-.8 1.2-1.5v-6.6c0-.6-.3-1.1-.8-1.3-3.9-1.9-6.3-5.8-6.3-10.1v-6.4a11.29 11.29 0 1 1 22.6 0V48c0 4.3-2.5 8.3-6.5 10.2zm8.7-5.5c.5-1.5.8-3.1.8-4.7v-6.4c0-.9-.1-1.9-.3-2.7 1.6-1 3.4-1.7 5.2-2.1.7-.2 1.2-.8 1.2-1.5v-5c0-.6-.3-1.1-.8-1.3a8.2 8.2 0 0 1-4.6-7.3v-4.8c0-4.5 3.7-8.2 8.2-8.2 4.5 0 8.2 3.7 8.2 8.2v4.8c0 3.1-1.9 6-4.7 7.4-.5.2-.9.8-.9 1.4v4.8c0 .7.5 1.3 1.2 1.5 7.7 1.7 13.4 8.3 14.1 16l-27.6-.1z"/>
  </symbol>

  <symbol id="like">
    <path d="M90.3 49a8 8 0 0 0 3.8-6.7c0-4.4-4-8-8.9-8H61.7a20 20 0 0 0 2-10.7C63 13.1 56.6 7.7 53 6.2c-2.1-1-4.5-.7-6.3.6C45 8 43 11 43.6 17.8c.5 7-8.5 14.7-12.8 18V33c0-.9-.7-1.5-1.5-1.5H9.4c-.8 0-1.5.6-1.5 1.5v54.1c0 .9.7 1.5 1.5 1.5h19.9c.8 0 1.5-.6 1.5-1.5v-2.7c5.6 2 21.5 7.5 29.4 7.8H76c4.8 0 8.8-3.7 8.8-8.4 0-2.1-.8-4.1-2.2-5.6a8.6 8.6 0 0 0 7.4-8.4c0-2.2-.9-4.2-2.4-5.8 3.7-1 6.5-4.2 6.5-8.1 0-3-1.5-5.5-3.8-7zM10.9 85.7V34.6h16.9V85.7H10.9zm74.3-24.2H76a1.5 1.5 0 0 0 0 3h5.2c3.2 0 5.8 2.4 5.8 5.4 0 3-2.6 5.5-5.8 5.5H70.5a1.5 1.5 0 0 0 0 3H76c3.2 0 5.8 2.5 5.8 5.5s-2.6 5.5-5.8 5.5l-15.8-.1a142 142 0 0 1-29.4-8V39.5c3.2-2.3 16.5-12 15.7-22-.3-4.2.4-7.1 2-8.3 1.4-1 3-.5 3.4-.3 3 1.3 8.3 5.9 8.7 14.9.4 7.8-2.7 10.7-2.8 10.8a1.5 1.5 0 0 0 1 2.6h26.4c3.3 0 5.9 2.3 5.9 5.1 0 2.9-2.6 5.2-5.9 5.2h-6.4a1.5 1.5 0 1 0 0 3h6.4c3.3 0 5.9 2.4 5.9 5.5 0 3-2.6 5.5-5.9 5.5z"/>
  </symbol>
</svg>
